<mxfile host="65bd71144e">
    <diagram id="aUnT7LFseOe2xe_AJLDL" name="Страница 1">
        <mxGraphModel dx="1665" dy="1260" grid="0" gridSize="10" guides="1" tooltips="1" connect="1" arrows="1" fold="1" page="1" pageScale="1" pageWidth="827" pageHeight="1169" math="0" shadow="0">
            <root>
                <mxCell id="0"/>
                <mxCell id="1" parent="0"/>
                <mxCell id="126" value="" style="whiteSpace=wrap;html=1;fillColor=none;strokeColor=none;" parent="1" vertex="1">
                    <mxGeometry width="820" height="1160" as="geometry"/>
                </mxCell>
                <mxCell id="23" value="Конец" style="html=1;dashed=0;whitespace=wrap;shape=mxgraph.dfd.start" parent="1" vertex="1">
                    <mxGeometry x="220" y="690" width="157.5" height="50" as="geometry"/>
                </mxCell>
                <mxCell id="166" style="edgeStyle=none;rounded=0;html=1;endArrow=block;endFill=1;entryX=0.5;entryY=0.5;entryDx=0;entryDy=-25;exitX=0.5;exitY=1;exitDx=0;exitDy=0;entryPerimeter=0;" parent="1" source="198" target="23" edge="1">
                    <mxGeometry relative="1" as="geometry">
                        <mxPoint x="500" y="600" as="targetPoint"/>
                        <mxPoint x="500" y="100" as="sourcePoint"/>
                        <Array as="points">
                            <mxPoint x="500" y="670"/>
                            <mxPoint x="299" y="670"/>
                        </Array>
                    </mxGeometry>
                </mxCell>
                <mxCell id="157" style="edgeStyle=none;rounded=0;html=1;exitX=0.5;exitY=1;exitDx=0;exitDy=0;endArrow=block;endFill=1;" parent="1" source="197" target="152" edge="1">
                    <mxGeometry relative="1" as="geometry">
                        <mxPoint x="112.5" y="90" as="sourcePoint"/>
                    </mxGeometry>
                </mxCell>
                <mxCell id="156" style="edgeStyle=none;rounded=0;html=1;exitX=1;exitY=0.5;exitDx=0;exitDy=0;endArrow=block;endFill=1;" parent="1" source="152" target="155" edge="1">
                    <mxGeometry relative="1" as="geometry"/>
                </mxCell>
                <mxCell id="176" style="edgeStyle=none;rounded=0;html=1;exitX=0.5;exitY=1;exitDx=0;exitDy=0;entryX=0.5;entryY=0;entryDx=0;entryDy=0;endArrow=block;endFill=1;" parent="1" source="152" target="153" edge="1">
                    <mxGeometry relative="1" as="geometry"/>
                </mxCell>
                <mxCell id="152" value="&quot;не очень низкого&quot;&lt;br&gt;в request" style="shape=rhombus;html=1;dashed=0;whitespace=wrap;perimeter=rhombusPerimeter;" parent="1" vertex="1">
                    <mxGeometry x="20" y="110" width="185" height="75" as="geometry"/>
                </mxCell>
                <mxCell id="161" style="edgeStyle=none;rounded=0;html=1;exitX=1;exitY=0.5;exitDx=0;exitDy=0;entryX=0;entryY=0.5;entryDx=0;entryDy=0;endArrow=block;endFill=1;" parent="1" source="153" target="159" edge="1">
                    <mxGeometry relative="1" as="geometry"/>
                </mxCell>
                <mxCell id="177" style="edgeStyle=none;rounded=0;html=1;exitX=0.5;exitY=1;exitDx=0;exitDy=0;entryX=0.5;entryY=0;entryDx=0;entryDy=0;endArrow=block;endFill=1;" parent="1" source="153" target="154" edge="1">
                    <mxGeometry relative="1" as="geometry"/>
                </mxCell>
                <mxCell id="153" value="&quot;не низкого&quot;&lt;br&gt;в request" style="shape=rhombus;html=1;dashed=0;whitespace=wrap;perimeter=rhombusPerimeter;" parent="1" vertex="1">
                    <mxGeometry x="20" y="205" width="185" height="75" as="geometry"/>
                </mxCell>
                <mxCell id="165" style="edgeStyle=none;rounded=0;html=1;exitX=1;exitY=0.5;exitDx=0;exitDy=0;entryX=0;entryY=0.5;entryDx=0;entryDy=0;endArrow=block;endFill=1;" parent="1" source="154" target="162" edge="1">
                    <mxGeometry relative="1" as="geometry"/>
                </mxCell>
                <mxCell id="178" style="edgeStyle=none;rounded=0;html=1;exitX=0.5;exitY=1;exitDx=0;exitDy=0;entryX=0.5;entryY=0;entryDx=0;entryDy=0;endArrow=block;endFill=1;" parent="1" source="154" target="163" edge="1">
                    <mxGeometry relative="1" as="geometry"/>
                </mxCell>
                <mxCell id="154" value="&quot;не среднего&quot;&lt;br&gt;в request" style="shape=rhombus;html=1;dashed=0;whitespace=wrap;perimeter=rhombusPerimeter;" parent="1" vertex="1">
                    <mxGeometry x="20" y="305" width="185" height="75" as="geometry"/>
                </mxCell>
                <mxCell id="196" style="edgeStyle=none;html=1;exitX=1;exitY=0.5;exitDx=0;exitDy=0;" edge="1" parent="1" source="155">
                    <mxGeometry relative="1" as="geometry">
                        <mxPoint x="500" y="147.42105263157896" as="targetPoint"/>
                    </mxGeometry>
                </mxCell>
                <mxCell id="155" value="result &lt;br&gt;= &lt;br&gt;NOT_VERY_SHORT" style="html=1;dashed=0;whitespace=wrap;" parent="1" vertex="1">
                    <mxGeometry x="238.13" y="122.5" width="150" height="50" as="geometry"/>
                </mxCell>
                <mxCell id="170" style="edgeStyle=none;rounded=0;html=1;exitX=1;exitY=0.5;exitDx=0;exitDy=0;endArrow=block;endFill=1;" parent="1" source="159" edge="1">
                    <mxGeometry relative="1" as="geometry">
                        <mxPoint x="500" y="242.68965517241384" as="targetPoint"/>
                    </mxGeometry>
                </mxCell>
                <mxCell id="159" value="result &lt;br&gt;= &lt;br&gt;NOT_SHORT" style="html=1;dashed=0;whitespace=wrap;" parent="1" vertex="1">
                    <mxGeometry x="238.13" y="217.5" width="150" height="50" as="geometry"/>
                </mxCell>
                <mxCell id="171" style="edgeStyle=none;rounded=0;html=1;exitX=1;exitY=0.5;exitDx=0;exitDy=0;endArrow=block;endFill=1;" parent="1" source="162" edge="1">
                    <mxGeometry relative="1" as="geometry">
                        <mxPoint x="500" y="342.5" as="targetPoint"/>
                    </mxGeometry>
                </mxCell>
                <mxCell id="162" value="result &lt;br&gt;= &lt;br&gt;NOT_AVERAGE" style="html=1;dashed=0;whitespace=wrap;" parent="1" vertex="1">
                    <mxGeometry x="243" y="317.5" width="150" height="50" as="geometry"/>
                </mxCell>
                <mxCell id="173" style="edgeStyle=none;rounded=0;html=1;exitX=1;exitY=0.5;exitDx=0;exitDy=0;entryX=0;entryY=0.5;entryDx=0;entryDy=0;endArrow=block;endFill=1;" parent="1" source="163" target="172" edge="1">
                    <mxGeometry relative="1" as="geometry"/>
                </mxCell>
                <mxCell id="179" style="edgeStyle=none;rounded=0;html=1;exitX=0.5;exitY=1;exitDx=0;exitDy=0;entryX=0.5;entryY=0;entryDx=0;entryDy=0;endArrow=block;endFill=1;" parent="1" source="163" target="164" edge="1">
                    <mxGeometry relative="1" as="geometry"/>
                </mxCell>
                <mxCell id="163" value="&quot;не высокого&quot;&lt;br&gt;в request" style="shape=rhombus;html=1;dashed=0;whitespace=wrap;perimeter=rhombusPerimeter;" parent="1" vertex="1">
                    <mxGeometry x="20" y="400" width="185" height="75" as="geometry"/>
                </mxCell>
                <mxCell id="175" style="edgeStyle=none;rounded=0;html=1;exitX=1;exitY=0.5;exitDx=0;exitDy=0;entryX=0;entryY=0.5;entryDx=0;entryDy=0;endArrow=block;endFill=1;" parent="1" source="164" target="174" edge="1">
                    <mxGeometry relative="1" as="geometry"/>
                </mxCell>
                <mxCell id="182" style="edgeStyle=none;rounded=0;html=1;exitX=0.5;exitY=1;exitDx=0;exitDy=0;entryX=0.5;entryY=0;entryDx=0;entryDy=0;endArrow=block;endFill=1;" parent="1" source="164" edge="1">
                    <mxGeometry relative="1" as="geometry">
                        <mxPoint x="112.5" y="600" as="targetPoint"/>
                    </mxGeometry>
                </mxCell>
                <mxCell id="164" value="&quot;не очень высокого&quot;&lt;br&gt;в request" style="shape=rhombus;html=1;dashed=0;whitespace=wrap;perimeter=rhombusPerimeter;" parent="1" vertex="1">
                    <mxGeometry x="20" y="495" width="185" height="75" as="geometry"/>
                </mxCell>
                <mxCell id="183" style="edgeStyle=none;rounded=0;html=1;exitX=1;exitY=0.5;exitDx=0;exitDy=0;endArrow=block;endFill=1;" parent="1" source="172" edge="1">
                    <mxGeometry relative="1" as="geometry">
                        <mxPoint x="500" y="437.45454545454527" as="targetPoint"/>
                    </mxGeometry>
                </mxCell>
                <mxCell id="172" value="result &lt;br&gt;= &lt;br&gt;NOT_TALL" style="html=1;dashed=0;whitespace=wrap;" parent="1" vertex="1">
                    <mxGeometry x="244" y="412.5" width="150" height="50" as="geometry"/>
                </mxCell>
                <mxCell id="184" style="edgeStyle=none;rounded=0;html=1;exitX=1;exitY=0.5;exitDx=0;exitDy=0;endArrow=block;endFill=1;" parent="1" source="174" edge="1">
                    <mxGeometry relative="1" as="geometry">
                        <mxPoint x="500" y="532.9090909090908" as="targetPoint"/>
                    </mxGeometry>
                </mxCell>
                <mxCell id="174" value="result &lt;br&gt;= &lt;br&gt;NOT_VERY_TALL" style="html=1;dashed=0;whitespace=wrap;" parent="1" vertex="1">
                    <mxGeometry x="244" y="507.5" width="150" height="50" as="geometry"/>
                </mxCell>
                <mxCell id="185" value="Да" style="text;html=1;resizable=0;autosize=1;align=center;verticalAlign=middle;points=[];fillColor=none;strokeColor=none;rounded=0;" parent="1" vertex="1">
                    <mxGeometry x="205" y="130" width="30" height="20" as="geometry"/>
                </mxCell>
                <mxCell id="186" value="Да" style="text;html=1;resizable=0;autosize=1;align=center;verticalAlign=middle;points=[];fillColor=none;strokeColor=none;rounded=0;" parent="1" vertex="1">
                    <mxGeometry x="208.13" y="225" width="30" height="20" as="geometry"/>
                </mxCell>
                <mxCell id="188" value="Да" style="text;html=1;resizable=0;autosize=1;align=center;verticalAlign=middle;points=[];fillColor=none;strokeColor=none;rounded=0;" parent="1" vertex="1">
                    <mxGeometry x="208.13" y="317.5" width="30" height="20" as="geometry"/>
                </mxCell>
                <mxCell id="189" value="Да" style="text;html=1;resizable=0;autosize=1;align=center;verticalAlign=middle;points=[];fillColor=none;strokeColor=none;rounded=0;" parent="1" vertex="1">
                    <mxGeometry x="208.13" y="420" width="30" height="20" as="geometry"/>
                </mxCell>
                <mxCell id="190" value="Да" style="text;html=1;resizable=0;autosize=1;align=center;verticalAlign=middle;points=[];fillColor=none;strokeColor=none;rounded=0;" parent="1" vertex="1">
                    <mxGeometry x="205" y="510" width="30" height="20" as="geometry"/>
                </mxCell>
                <mxCell id="191" value="Нет" style="text;html=1;resizable=0;autosize=1;align=center;verticalAlign=middle;points=[];fillColor=none;strokeColor=none;rounded=0;" parent="1" vertex="1">
                    <mxGeometry x="77.5" y="185" width="40" height="20" as="geometry"/>
                </mxCell>
                <mxCell id="192" value="Нет" style="text;html=1;resizable=0;autosize=1;align=center;verticalAlign=middle;points=[];fillColor=none;strokeColor=none;rounded=0;" parent="1" vertex="1">
                    <mxGeometry x="77.5" y="280" width="40" height="20" as="geometry"/>
                </mxCell>
                <mxCell id="193" value="Нет" style="text;html=1;resizable=0;autosize=1;align=center;verticalAlign=middle;points=[];fillColor=none;strokeColor=none;rounded=0;" parent="1" vertex="1">
                    <mxGeometry x="77.5" y="380" width="40" height="20" as="geometry"/>
                </mxCell>
                <mxCell id="194" value="Нет" style="text;html=1;resizable=0;autosize=1;align=center;verticalAlign=middle;points=[];fillColor=none;strokeColor=none;rounded=0;" parent="1" vertex="1">
                    <mxGeometry x="77.5" y="470" width="40" height="20" as="geometry"/>
                </mxCell>
                <mxCell id="195" value="Нет" style="text;html=1;resizable=0;autosize=1;align=center;verticalAlign=middle;points=[];fillColor=none;strokeColor=none;rounded=0;" parent="1" vertex="1">
                    <mxGeometry x="77.5" y="570" width="40" height="20" as="geometry"/>
                </mxCell>
                <mxCell id="197" value="А" style="ellipse;whiteSpace=wrap;html=1;" vertex="1" parent="1">
                    <mxGeometry x="87.5" y="15" width="50" height="50" as="geometry"/>
                </mxCell>
                <mxCell id="198" value="Б" style="ellipse;whiteSpace=wrap;html=1;" vertex="1" parent="1">
                    <mxGeometry x="475" y="15" width="50" height="50" as="geometry"/>
                </mxCell>
                <mxCell id="200" style="edgeStyle=none;html=1;exitX=0.5;exitY=1;exitDx=0;exitDy=0;entryX=0.5;entryY=0.5;entryDx=0;entryDy=-25;entryPerimeter=0;rounded=0;endArrow=block;endFill=1;" edge="1" parent="1" source="199" target="23">
                    <mxGeometry relative="1" as="geometry">
                        <Array as="points">
                            <mxPoint x="113" y="670"/>
                            <mxPoint x="299" y="670"/>
                        </Array>
                    </mxGeometry>
                </mxCell>
                <mxCell id="199" value="Вывести сообщения о&amp;nbsp;&lt;br&gt;некорректности запроса" style="html=1;dashed=0;whitespace=wrap;" vertex="1" parent="1">
                    <mxGeometry x="37.5" y="600" width="150" height="50" as="geometry"/>
                </mxCell>
            </root>
        </mxGraphModel>
    </diagram>
</mxfile>